solid Cylinder
   facet normal 2.855505e-02 -3.476030e-18 9.995922e-01
      outer loop
         vertex 5.285444e+00 1.000000e+01 9.991846e+00
         vertex 5.000000e+00 1.000000e+01 1.000000e+01
         vertex 5.000000e+00 0.000000e+00 1.000000e+01
      endloop
   endfacet
   facet normal -2.855505e-02 3.496985e-18 9.995922e-01
      outer loop
         vertex 5.000000e+00 0.000000e+00 1.000000e+01
         vertex 5.000000e+00 1.000000e+01 1.000000e+01
         vertex 4.714556e+00 0.000000e+00 9.991846e+00
      endloop
   endfacet
   facet normal -2.855505e-02 0.000000e+00 9.995922e-01
      outer loop
         vertex 5.000000e+00 1.000000e+01 1.000000e+01
         vertex 4.714556e+00 1.000000e+01 9.991846e+00
         vertex 4.714556e+00 0.000000e+00 9.991846e+00
      endloop
   endfacet
   facet normal -1.139919e-01 0.000000e+00 9.934817e-01
      outer loop
         vertex 4.714556e+00 0.000000e+00 9.991846e+00
         vertex 4.714556e+00 1.000000e+01 9.991846e+00
         vertex 4.147389e+00 1.000000e+01 9.926769e+00
      endloop
   endfacet
   facet normal -1.139919e-01 0.000000e+00 9.934817e-01
      outer loop
         vertex 4.714556e+00 0.000000e+00 9.991846e+00
         vertex 4.147389e+00 1.000000e+01 9.926769e+00
         vertex 4.147389e+00 0.000000e+00 9.926769e+00
      endloop
   endfacet
   facet normal -2.264969e-01 0.000000e+00 9.740119e-01
      outer loop
         vertex 4.147389e+00 0.000000e+00 9.926769e+00
         vertex 4.147389e+00 1.000000e+01 9.926769e+00
         vertex 3.591337e+00 1.000000e+01 9.797465e+00
      endloop
   endfacet
   facet normal -2.264969e-01 0.000000e+00 9.740119e-01
      outer loop
         vertex 4.147389e+00 0.000000e+00 9.926769e+00
         vertex 3.591337e+00 1.000000e+01 9.797465e+00
         vertex 3.591337e+00 0.000000e+00 9.797465e+00
      endloop
   endfacet
   facet normal -3.360490e-01 0.000000e+00 9.418445e-01
      outer loop
         vertex 3.591337e+00 0.000000e+00 9.797465e+00
         vertex 3.591337e+00 1.000000e+01 9.797465e+00
         vertex 3.053649e+00 1.000000e+01 9.605618e+00
      endloop
   endfacet
   facet normal -3.360490e-01 0.000000e+00 9.418445e-01
      outer loop
         vertex 3.591337e+00 0.000000e+00 9.797465e+00
         vertex 3.053649e+00 1.000000e+01 9.605618e+00
         vertex 3.053649e+00 0.000000e+00 9.605618e+00
      endloop
   endfacet
   facet normal -4.412211e-01 0.000000e+00 8.973984e-01
      outer loop
         vertex 3.053649e+00 0.000000e+00 9.605618e+00
         vertex 3.053649e+00 1.000000e+01 9.605618e+00
         vertex 2.541335e+00 1.000000e+01 9.353730e+00
      endloop
   endfacet
   facet normal -4.412211e-01 0.000000e+00 8.973984e-01
      outer loop
         vertex 3.053649e+00 0.000000e+00 9.605618e+00
         vertex 2.541335e+00 1.000000e+01 9.353730e+00
         vertex 2.541335e+00 0.000000e+00 9.353730e+00
      endloop
   endfacet
   facet normal -5.406408e-01 0.000000e+00 8.412535e-01
      outer loop
         vertex 2.541335e+00 0.000000e+00 9.353730e+00
         vertex 2.541335e+00 1.000000e+01 9.353730e+00
         vertex 2.061074e+00 1.000000e+01 9.045085e+00
      endloop
   endfacet
   facet normal -5.406408e-01 0.000000e+00 8.412535e-01
      outer loop
         vertex 2.541335e+00 0.000000e+00 9.353730e+00
         vertex 2.061074e+00 1.000000e+01 9.045085e+00
         vertex 2.061074e+00 0.000000e+00 9.045085e+00
      endloop
   endfacet
   facet normal -6.330127e-01 0.000000e+00 7.741414e-01
      outer loop
         vertex 2.061074e+00 0.000000e+00 9.045085e+00
         vertex 2.061074e+00 1.000000e+01 9.045085e+00
         vertex 1.619125e+00 1.000000e+01 8.683705e+00
      endloop
   endfacet
   facet normal -6.330127e-01 0.000000e+00 7.741414e-01
      outer loop
         vertex 2.061074e+00 0.000000e+00 9.045085e+00
         vertex 1.619125e+00 1.000000e+01 8.683705e+00
         vertex 1.619125e+00 0.000000e+00 8.683705e+00
      endloop
   endfacet
   facet normal -7.171316e-01 0.000000e+00 6.969378e-01
      outer loop
         vertex 1.619125e+00 0.000000e+00 8.683705e+00
         vertex 1.619125e+00 1.000000e+01 8.683705e+00
         vertex 1.221252e+00 1.000000e+01 8.274304e+00
      endloop
   endfacet
   facet normal -7.171316e-01 0.000000e+00 6.969378e-01
      outer loop
         vertex 1.619125e+00 0.000000e+00 8.683705e+00
         vertex 1.221252e+00 1.000000e+01 8.274304e+00
         vertex 1.221252e+00 0.000000e+00 8.274304e+00
      endloop
   endfacet
   facet normal -7.919023e-01 0.000000e+00 6.106478e-01
      outer loop
         vertex 1.221252e+00 0.000000e+00 8.274304e+00
         vertex 1.221252e+00 1.000000e+01 8.274304e+00
         vertex 8.726404e-01 1.000000e+01 7.822216e+00
      endloop
   endfacet
   facet normal -7.919023e-01 0.000000e+00 6.106478e-01
      outer loop
         vertex 1.221252e+00 0.000000e+00 8.274304e+00
         vertex 8.726404e-01 1.000000e+01 7.822216e+00
         vertex 8.726404e-01 0.000000e+00 7.822216e+00
      endloop
   endfacet
   facet normal -8.563492e-01 0.000000e+00 5.163972e-01
      outer loop
         vertex 8.726404e-01 0.000000e+00 7.822216e+00
         vertex 8.726404e-01 1.000000e+01 7.822216e+00
         vertex 5.778354e-01 1.000000e+01 7.333336e+00
      endloop
   endfacet
   facet normal -8.563492e-01 0.000000e+00 5.163972e-01
      outer loop
         vertex 8.726404e-01 0.000000e+00 7.822216e+00
         vertex 5.778354e-01 1.000000e+01 7.333336e+00
         vertex 5.778354e-01 0.000000e+00 7.333336e+00
      endloop
   endfacet
   facet normal -9.096318e-01 0.000000e+00 4.154154e-01
      outer loop
         vertex 5.778354e-01 0.000000e+00 7.333336e+00
         vertex 5.778354e-01 1.000000e+01 7.333336e+00
         vertex 3.406797e-01 1.000000e+01 6.814038e+00
      endloop
   endfacet
   facet normal -9.096318e-01 0.000000e+00 4.154154e-01
      outer loop
         vertex 5.778354e-01 0.000000e+00 7.333336e+00
         vertex 3.406797e-01 1.000000e+01 6.814038e+00
         vertex 3.406797e-01 0.000000e+00 6.814038e+00
      endloop
   endfacet
   facet normal -9.510566e-01 0.000000e+00 3.090167e-01
      outer loop
         vertex 3.406797e-01 0.000000e+00 6.814038e+00
         vertex 3.406797e-01 1.000000e+01 6.814038e+00
         vertex 1.642657e-01 1.000000e+01 6.271092e+00
      endloop
   endfacet
   facet normal -9.510566e-01 0.000000e+00 3.090167e-01
      outer loop
         vertex 3.406797e-01 0.000000e+00 6.814038e+00
         vertex 1.642657e-01 1.000000e+01 6.271092e+00
         vertex 1.642657e-01 0.000000e+00 6.271092e+00
      endloop
   endfacet
   facet normal -9.800825e-01 0.000000e+00 1.985909e-01
      outer loop
         vertex 1.642657e-01 0.000000e+00 6.271092e+00
         vertex 1.642657e-01 1.000000e+01 6.271092e+00
         vertex 5.089259e-02 1.000000e+01 5.711574e+00
      endloop
   endfacet
   facet normal -9.800825e-01 0.000000e+00 1.985909e-01
      outer loop
         vertex 1.642657e-01 0.000000e+00 6.271092e+00
         vertex 5.089259e-02 1.000000e+01 5.711574e+00
         vertex 5.089259e-02 0.000000e+00 5.711574e+00
      endloop
   endfacet
   facet normal -9.963318e-01 0.000000e+00 8.557449e-02
      outer loop
         vertex 5.089259e-02 0.000000e+00 5.711574e+00
         vertex 5.089259e-02 1.000000e+01 5.711574e+00
         vertex 2.039131e-03 1.000000e+01 5.142780e+00
      endloop
   endfacet
   facet normal -9.963318e-01 0.000000e+00 8.557449e-02
      outer loop
         vertex 5.089259e-02 0.000000e+00 5.711574e+00
         vertex 2.039131e-03 1.000000e+01 5.142780e+00
         vertex 2.039131e-03 0.000000e+00 5.142780e+00
      endloop
   endfacet
   facet normal -9.995922e-01 0.000000e+00 -2.855528e-02
      outer loop
         vertex 2.039131e-03 0.000000e+00 5.142780e+00
         vertex 2.039131e-03 1.000000e+01 5.142780e+00
         vertex 1.834100e-02 1.000000e+01 4.572125e+00
      endloop
   endfacet
   facet normal -9.995922e-01 0.000000e+00 -2.855528e-02
      outer loop
         vertex 2.039131e-03 0.000000e+00 5.142780e+00
         vertex 1.834100e-02 1.000000e+01 4.572125e+00
         vertex 1.834100e-02 0.000000e+00 4.572125e+00
      endloop
   endfacet
   facet normal -9.898213e-01 0.000000e+00 -1.423155e-01
      outer loop
         vertex 1.834100e-02 0.000000e+00 4.572125e+00
         vertex 1.834100e-02 1.000000e+01 4.572125e+00
         vertex 9.958725e-02 1.000000e+01 4.007048e+00
      endloop
   endfacet
   facet normal -9.898213e-01 0.000000e+00 -1.423155e-01
      outer loop
         vertex 1.834100e-02 0.000000e+00 4.572125e+00
         vertex 9.958725e-02 1.000000e+01 4.007048e+00
         vertex 9.958725e-02 0.000000e+00 4.007048e+00
      endloop
   endfacet
   facet normal -9.671470e-01 0.000000e+00 -2.542177e-01
      outer loop
         vertex 9.958725e-02 0.000000e+00 4.007048e+00
         vertex 9.958725e-02 1.000000e+01 4.007048e+00
         vertex 2.447171e-01 1.000000e+01 3.454915e+00
      endloop
   endfacet
   facet normal -9.671470e-01 0.000000e+00 -2.542177e-01
      outer loop
         vertex 9.958725e-02 0.000000e+00 4.007048e+00
         vertex 2.447171e-01 1.000000e+01 3.454915e+00
         vertex 2.447171e-01 0.000000e+00 3.454915e+00
      endloop
   endfacet
   facet normal -9.318638e-01 0.000000e+00 -3.628082e-01
      outer loop
         vertex 2.447171e-01 0.000000e+00 3.454915e+00
         vertex 2.447171e-01 1.000000e+01 3.454915e+00
         vertex 4.518400e-01 1.000000e+01 2.922925e+00
      endloop
   endfacet
   facet normal -9.318638e-01 0.000000e+00 -3.628082e-01
      outer loop
         vertex 2.447171e-01 0.000000e+00 3.454915e+00
         vertex 4.518400e-01 1.000000e+01 2.922925e+00
         vertex 4.518400e-01 0.000000e+00 2.922925e+00
      endloop
   endfacet
   facet normal -8.844331e-01 0.000000e+00 -4.666669e-01
      outer loop
         vertex 4.518400e-01 0.000000e+00 2.922925e+00
         vertex 4.518400e-01 1.000000e+01 2.922925e+00
         vertex 7.182546e-01 1.000000e+01 2.418013e+00
      endloop
   endfacet
   facet normal -8.844331e-01 0.000000e+00 -4.666669e-01
      outer loop
         vertex 4.518400e-01 0.000000e+00 2.922925e+00
         vertex 7.182546e-01 1.000000e+01 2.418013e+00
         vertex 7.182546e-01 0.000000e+00 2.418013e+00
      endloop
   endfacet
   facet normal -8.254719e-01 0.000000e+00 -5.644432e-01
      outer loop
         vertex 7.182546e-01 0.000000e+00 2.418013e+00
         vertex 7.182546e-01 1.000000e+01 2.418013e+00
         vertex 1.040488e+00 1.000000e+01 1.946761e+00
      endloop
   endfacet
   facet normal -8.254719e-01 0.000000e+00 -5.644432e-01
      outer loop
         vertex 7.182546e-01 0.000000e+00 2.418013e+00
         vertex 1.040488e+00 1.000000e+01 1.946761e+00
         vertex 1.040488e+00 0.000000e+00 1.946761e+00
      endloop
   endfacet
   facet normal -7.557494e-01 0.000000e+00 -6.548610e-01
      outer loop
         vertex 1.040488e+00 0.000000e+00 1.946761e+00
         vertex 1.040488e+00 1.000000e+01 1.946761e+00
         vertex 1.414341e+00 1.000000e+01 1.515312e+00
      endloop
   endfacet
   facet normal -7.557494e-01 0.000000e+00 -6.548610e-01
      outer loop
         vertex 1.040488e+00 0.000000e+00 1.946761e+00
         vertex 1.414341e+00 1.000000e+01 1.515312e+00
         vertex 1.414341e+00 0.000000e+00 1.515312e+00
      endloop
   endfacet
   facet normal -6.761751e-01 0.000000e+00 -7.367409e-01
      outer loop
         vertex 1.414341e+00 0.000000e+00 1.515312e+00
         vertex 1.414341e+00 1.000000e+01 1.515312e+00
         vertex 1.834938e+00 1.000000e+01 1.129292e+00
      endloop
   endfacet
   facet normal -6.761751e-01 0.000000e+00 -7.367409e-01
      outer loop
         vertex 1.414341e+00 0.000000e+00 1.515312e+00
         vertex 1.834938e+00 1.000000e+01 1.129292e+00
         vertex 1.834938e+00 0.000000e+00 1.129292e+00
      endloop
   endfacet
   facet normal -5.877851e-01 0.000000e+00 -8.090171e-01
      outer loop
         vertex 1.834938e+00 0.000000e+00 1.129292e+00
         vertex 1.834938e+00 1.000000e+01 1.129292e+00
         vertex 2.296796e+00 1.000000e+01 7.937322e-01
      endloop
   endfacet
   facet normal -5.877851e-01 0.000000e+00 -8.090171e-01
      outer loop
         vertex 1.834938e+00 0.000000e+00 1.129292e+00
         vertex 2.296796e+00 1.000000e+01 7.937322e-01
         vertex 2.296796e+00 0.000000e+00 7.937322e-01
      endloop
   endfacet
   facet normal -4.917328e-01 0.000000e+00 -8.707461e-01
      outer loop
         vertex 2.296796e+00 0.000000e+00 7.937322e-01
         vertex 2.296796e+00 1.000000e+01 7.937322e-01
         vertex 2.793894e+00 1.000000e+01 5.130079e-01
      endloop
   endfacet
   facet normal -4.917328e-01 0.000000e+00 -8.707461e-01
      outer loop
         vertex 2.296796e+00 0.000000e+00 7.937322e-01
         vertex 2.793894e+00 1.000000e+01 5.130079e-01
         vertex 2.793894e+00 0.000000e+00 5.130079e-01
      endloop
   endfacet
   facet normal -3.892704e-01 0.000000e+00 -9.211235e-01
      outer loop
         vertex 2.793894e+00 0.000000e+00 5.130079e-01
         vertex 2.793894e+00 1.000000e+01 5.130079e-01
         vertex 3.319753e+00 1.000000e+01 2.907780e-01
      endloop
   endfacet
   facet normal -3.892704e-01 0.000000e+00 -9.211235e-01
      outer loop
         vertex 2.793894e+00 0.000000e+00 5.130079e-01
         vertex 3.319753e+00 1.000000e+01 2.907780e-01
         vertex 3.319753e+00 0.000000e+00 2.907780e-01
      endloop
   endfacet
   facet normal -2.817322e-01 0.000000e+00 -9.594931e-01
      outer loop
         vertex 3.319753e+00 0.000000e+00 2.907780e-01
         vertex 3.319753e+00 1.000000e+01 2.907780e-01
         vertex 3.867516e+00 1.000000e+01 1.299405e-01
      endloop
   endfacet
   facet normal -2.817322e-01 0.000000e+00 -9.594931e-01
      outer loop
         vertex 3.319753e+00 0.000000e+00 2.907780e-01
         vertex 3.867516e+00 1.000000e+01 1.299405e-01
         vertex 3.867516e+00 0.000000e+00 1.299405e-01
      endloop
   endfacet
   facet normal -1.705225e-01 0.000000e+00 -9.853538e-01
      outer loop
         vertex 3.867516e+00 0.000000e+00 1.299405e-01
         vertex 3.867516e+00 1.000000e+01 1.299405e-01
         vertex 4.430043e+00 1.000000e+01 3.259117e-02
      endloop
   endfacet
   facet normal -1.705225e-01 0.000000e+00 -9.853538e-01
      outer loop
         vertex 3.867516e+00 0.000000e+00 1.299405e-01
         vertex 4.430043e+00 1.000000e+01 3.259117e-02
         vertex 4.430043e+00 0.000000e+00 3.259117e-02
      endloop
   endfacet
   facet normal -5.708854e-02 0.000000e+00 -9.983691e-01
      outer loop
         vertex 4.430043e+00 0.000000e+00 3.259117e-02
         vertex 4.430043e+00 1.000000e+01 3.259117e-02
         vertex 5.000000e+00 1.000000e+01 0.000000e+00
      endloop
   endfacet
   facet normal -5.708854e-02 0.000000e+00 -9.983691e-01
      outer loop
         vertex 4.430043e+00 0.000000e+00 3.259117e-02
         vertex 5.000000e+00 1.000000e+01 0.000000e+00
         vertex 5.000000e+00 0.000000e+00 0.000000e+00
      endloop
   endfacet
   facet normal 5.708854e-02 0.000000e+00 -9.983691e-01
      outer loop
         vertex 5.000000e+00 0.000000e+00 0.000000e+00
         vertex 5.000000e+00 1.000000e+01 0.000000e+00
         vertex 5.569957e+00 1.000000e+01 3.259117e-02
      endloop
   endfacet
   facet normal 5.708854e-02 0.000000e+00 -9.983691e-01
      outer loop
         vertex 5.000000e+00 0.000000e+00 0.000000e+00
         vertex 5.569957e+00 1.000000e+01 3.259117e-02
         vertex 5.569957e+00 0.000000e+00 3.259117e-02
      endloop
   endfacet
   facet normal 1.705225e-01 0.000000e+00 -9.853538e-01
      outer loop
         vertex 5.569957e+00 0.000000e+00 3.259117e-02
         vertex 5.569957e+00 1.000000e+01 3.259117e-02
         vertex 6.132484e+00 1.000000e+01 1.299405e-01
      endloop
   endfacet
   facet normal 1.705225e-01 0.000000e+00 -9.853538e-01
      outer loop
         vertex 5.569957e+00 0.000000e+00 3.259117e-02
         vertex 6.132484e+00 1.000000e+01 1.299405e-01
         vertex 6.132484e+00 0.000000e+00 1.299405e-01
      endloop
   endfacet
   facet normal 2.817322e-01 0.000000e+00 -9.594931e-01
      outer loop
         vertex 6.132484e+00 0.000000e+00 1.299405e-01
         vertex 6.132484e+00 1.000000e+01 1.299405e-01
         vertex 6.680247e+00 1.000000e+01 2.907780e-01
      endloop
   endfacet
   facet normal 2.817322e-01 0.000000e+00 -9.594931e-01
      outer loop
         vertex 6.132484e+00 0.000000e+00 1.299405e-01
         vertex 6.680247e+00 1.000000e+01 2.907780e-01
         vertex 6.680247e+00 0.000000e+00 2.907780e-01
      endloop
   endfacet
   facet normal 3.892704e-01 0.000000e+00 -9.211235e-01
      outer loop
         vertex 6.680247e+00 0.000000e+00 2.907780e-01
         vertex 6.680247e+00 1.000000e+01 2.907780e-01
         vertex 7.206105e+00 1.000000e+01 5.130079e-01
      endloop
   endfacet
   facet normal 3.892704e-01 0.000000e+00 -9.211235e-01
      outer loop
         vertex 6.680247e+00 0.000000e+00 2.907780e-01
         vertex 7.206105e+00 1.000000e+01 5.130079e-01
         vertex 7.206105e+00 0.000000e+00 5.130079e-01
      endloop
   endfacet
   facet normal 4.917328e-01 0.000000e+00 -8.707461e-01
      outer loop
         vertex 7.206105e+00 0.000000e+00 5.130079e-01
         vertex 7.206105e+00 1.000000e+01 5.130079e-01
         vertex 7.703204e+00 1.000000e+01 7.937322e-01
      endloop
   endfacet
   facet normal 4.917328e-01 0.000000e+00 -8.707461e-01
      outer loop
         vertex 7.206105e+00 0.000000e+00 5.130079e-01
         vertex 7.703204e+00 1.000000e+01 7.937322e-01
         vertex 7.703204e+00 0.000000e+00 7.937322e-01
      endloop
   endfacet
   facet normal 5.877851e-01 0.000000e+00 -8.090171e-01
      outer loop
         vertex 7.703204e+00 0.000000e+00 7.937322e-01
         vertex 7.703204e+00 1.000000e+01 7.937322e-01
         vertex 8.165062e+00 1.000000e+01 1.129292e+00
      endloop
   endfacet
   facet normal 5.877851e-01 0.000000e+00 -8.090171e-01
      outer loop
         vertex 7.703204e+00 0.000000e+00 7.937322e-01
         vertex 8.165062e+00 1.000000e+01 1.129292e+00
         vertex 8.165062e+00 0.000000e+00 1.129292e+00
      endloop
   endfacet
   facet normal 6.761751e-01 0.000000e+00 -7.367409e-01
      outer loop
         vertex 8.165062e+00 0.000000e+00 1.129292e+00
         vertex 8.165062e+00 1.000000e+01 1.129292e+00
         vertex 8.585659e+00 1.000000e+01 1.515312e+00
      endloop
   endfacet
   facet normal 6.761751e-01 0.000000e+00 -7.367409e-01
      outer loop
         vertex 8.165062e+00 0.000000e+00 1.129292e+00
         vertex 8.585659e+00 1.000000e+01 1.515312e+00
         vertex 8.585659e+00 0.000000e+00 1.515312e+00
      endloop
   endfacet
   facet normal 7.557494e-01 0.000000e+00 -6.548610e-01
      outer loop
         vertex 8.585659e+00 0.000000e+00 1.515312e+00
         vertex 8.585659e+00 1.000000e+01 1.515312e+00
         vertex 8.959511e+00 1.000000e+01 1.946761e+00
      endloop
   endfacet
   facet normal 7.557494e-01 0.000000e+00 -6.548610e-01
      outer loop
         vertex 8.585659e+00 0.000000e+00 1.515312e+00
         vertex 8.959511e+00 1.000000e+01 1.946761e+00
         vertex 8.959511e+00 0.000000e+00 1.946761e+00
      endloop
   endfacet
   facet normal 8.254719e-01 0.000000e+00 -5.644432e-01
      outer loop
         vertex 8.959511e+00 0.000000e+00 1.946761e+00
         vertex 8.959511e+00 1.000000e+01 1.946761e+00
         vertex 9.281745e+00 1.000000e+01 2.418013e+00
      endloop
   endfacet
   facet normal 8.254719e-01 0.000000e+00 -5.644432e-01
      outer loop
         vertex 8.959511e+00 0.000000e+00 1.946761e+00
         vertex 9.281745e+00 1.000000e+01 2.418013e+00
         vertex 9.281745e+00 0.000000e+00 2.418013e+00
      endloop
   endfacet
   facet normal 8.844331e-01 0.000000e+00 -4.666669e-01
      outer loop
         vertex 9.281745e+00 0.000000e+00 2.418013e+00
         vertex 9.281745e+00 1.000000e+01 2.418013e+00
         vertex 9.548160e+00 1.000000e+01 2.922925e+00
      endloop
   endfacet
   facet normal 8.844331e-01 0.000000e+00 -4.666669e-01
      outer loop
         vertex 9.281745e+00 0.000000e+00 2.418013e+00
         vertex 9.548160e+00 1.000000e+01 2.922925e+00
         vertex 9.548160e+00 0.000000e+00 2.922925e+00
      endloop
   endfacet
   facet normal 9.318638e-01 0.000000e+00 -3.628082e-01
      outer loop
         vertex 9.548160e+00 0.000000e+00 2.922925e+00
         vertex 9.548160e+00 1.000000e+01 2.922925e+00
         vertex 9.755283e+00 1.000000e+01 3.454915e+00
      endloop
   endfacet
   facet normal 9.318638e-01 0.000000e+00 -3.628082e-01
      outer loop
         vertex 9.548160e+00 0.000000e+00 2.922925e+00
         vertex 9.755283e+00 1.000000e+01 3.454915e+00
         vertex 9.755283e+00 0.000000e+00 3.454915e+00
      endloop
   endfacet
   facet normal 9.671470e-01 0.000000e+00 -2.542177e-01
      outer loop
         vertex 9.755283e+00 0.000000e+00 3.454915e+00
         vertex 9.755283e+00 1.000000e+01 3.454915e+00
         vertex 9.900413e+00 1.000000e+01 4.007048e+00
      endloop
   endfacet
   facet normal 9.671470e-01 0.000000e+00 -2.542177e-01
      outer loop
         vertex 9.755283e+00 0.000000e+00 3.454915e+00
         vertex 9.900413e+00 1.000000e+01 4.007048e+00
         vertex 9.900413e+00 0.000000e+00 4.007048e+00
      endloop
   endfacet
   facet normal 9.898213e-01 0.000000e+00 -1.423155e-01
      outer loop
         vertex 9.900413e+00 0.000000e+00 4.007048e+00
         vertex 9.900413e+00 1.000000e+01 4.007048e+00
         vertex 9.981659e+00 1.000000e+01 4.572125e+00
      endloop
   endfacet
   facet normal 9.898213e-01 0.000000e+00 -1.423155e-01
      outer loop
         vertex 9.900413e+00 0.000000e+00 4.007048e+00
         vertex 9.981659e+00 1.000000e+01 4.572125e+00
         vertex 9.981659e+00 0.000000e+00 4.572125e+00
      endloop
   endfacet
   facet normal 9.995922e-01 0.000000e+00 -2.855528e-02
      outer loop
         vertex 9.981659e+00 0.000000e+00 4.572125e+00
         vertex 9.981659e+00 1.000000e+01 4.572125e+00
         vertex 9.997961e+00 1.000000e+01 5.142780e+00
      endloop
   endfacet
   facet normal 9.995922e-01 0.000000e+00 -2.855528e-02
      outer loop
         vertex 9.981659e+00 0.000000e+00 4.572125e+00
         vertex 9.997961e+00 1.000000e+01 5.142780e+00
         vertex 9.997961e+00 0.000000e+00 5.142780e+00
      endloop
   endfacet
   facet normal 9.963318e-01 -0.000000e+00 8.557449e-02
      outer loop
         vertex 9.997961e+00 0.000000e+00 5.142780e+00
         vertex 9.997961e+00 1.000000e+01 5.142780e+00
         vertex 9.949107e+00 1.000000e+01 5.711574e+00
      endloop
   endfacet
   facet normal 9.963318e-01 0.000000e+00 8.557449e-02
      outer loop
         vertex 9.997961e+00 0.000000e+00 5.142780e+00
         vertex 9.949107e+00 1.000000e+01 5.711574e+00
         vertex 9.949107e+00 0.000000e+00 5.711574e+00
      endloop
   endfacet
   facet normal 9.800825e-01 -0.000000e+00 1.985909e-01
      outer loop
         vertex 9.949107e+00 0.000000e+00 5.711574e+00
         vertex 9.949107e+00 1.000000e+01 5.711574e+00
         vertex 9.835734e+00 1.000000e+01 6.271092e+00
      endloop
   endfacet
   facet normal 9.800825e-01 0.000000e+00 1.985909e-01
      outer loop
         vertex 9.949107e+00 0.000000e+00 5.711574e+00
         vertex 9.835734e+00 1.000000e+01 6.271092e+00
         vertex 9.835734e+00 0.000000e+00 6.271092e+00
      endloop
   endfacet
   facet normal 9.510566e-01 -0.000000e+00 3.090167e-01
      outer loop
         vertex 9.835734e+00 0.000000e+00 6.271092e+00
         vertex 9.835734e+00 1.000000e+01 6.271092e+00
         vertex 9.659320e+00 1.000000e+01 6.814038e+00
      endloop
   endfacet
   facet normal 9.510566e-01 0.000000e+00 3.090167e-01
      outer loop
         vertex 9.835734e+00 0.000000e+00 6.271092e+00
         vertex 9.659320e+00 1.000000e+01 6.814038e+00
         vertex 9.659320e+00 0.000000e+00 6.814038e+00
      endloop
   endfacet
   facet normal 9.096318e-01 -0.000000e+00 4.154154e-01
      outer loop
         vertex 9.659320e+00 0.000000e+00 6.814038e+00
         vertex 9.659320e+00 1.000000e+01 6.814038e+00
         vertex 9.422164e+00 1.000000e+01 7.333336e+00
      endloop
   endfacet
   facet normal 9.096318e-01 0.000000e+00 4.154154e-01
      outer loop
         vertex 9.659320e+00 0.000000e+00 6.814038e+00
         vertex 9.422164e+00 1.000000e+01 7.333336e+00
         vertex 9.422164e+00 0.000000e+00 7.333336e+00
      endloop
   endfacet
   facet normal 8.563492e-01 -0.000000e+00 5.163972e-01
      outer loop
         vertex 9.422164e+00 0.000000e+00 7.333336e+00
         vertex 9.422164e+00 1.000000e+01 7.333336e+00
         vertex 9.127359e+00 1.000000e+01 7.822216e+00
      endloop
   endfacet
   facet normal 8.563492e-01 0.000000e+00 5.163972e-01
      outer loop
         vertex 9.422164e+00 0.000000e+00 7.333336e+00
         vertex 9.127359e+00 1.000000e+01 7.822216e+00
         vertex 9.127359e+00 0.000000e+00 7.822216e+00
      endloop
   endfacet
   facet normal 7.919023e-01 -0.000000e+00 6.106478e-01
      outer loop
         vertex 9.127359e+00 0.000000e+00 7.822216e+00
         vertex 9.127359e+00 1.000000e+01 7.822216e+00
         vertex 8.778748e+00 1.000000e+01 8.274304e+00
      endloop
   endfacet
   facet normal 7.919023e-01 0.000000e+00 6.106478e-01
      outer loop
         vertex 9.127359e+00 0.000000e+00 7.822216e+00
         vertex 8.778748e+00 1.000000e+01 8.274304e+00
         vertex 8.778748e+00 0.000000e+00 8.274304e+00
      endloop
   endfacet
   facet normal 7.171316e-01 -0.000000e+00 6.969378e-01
      outer loop
         vertex 8.778748e+00 0.000000e+00 8.274304e+00
         vertex 8.778748e+00 1.000000e+01 8.274304e+00
         vertex 8.380874e+00 1.000000e+01 8.683705e+00
      endloop
   endfacet
   facet normal 7.171316e-01 0.000000e+00 6.969378e-01
      outer loop
         vertex 8.778748e+00 0.000000e+00 8.274304e+00
         vertex 8.380874e+00 1.000000e+01 8.683705e+00
         vertex 8.380874e+00 0.000000e+00 8.683705e+00
      endloop
   endfacet
   facet normal 6.330127e-01 -0.000000e+00 7.741414e-01
      outer loop
         vertex 8.380874e+00 0.000000e+00 8.683705e+00
         vertex 8.380874e+00 1.000000e+01 8.683705e+00
         vertex 7.938926e+00 1.000000e+01 9.045085e+00
      endloop
   endfacet
   facet normal 6.330127e-01 0.000000e+00 7.741414e-01
      outer loop
         vertex 8.380874e+00 0.000000e+00 8.683705e+00
         vertex 7.938926e+00 1.000000e+01 9.045085e+00
         vertex 7.938926e+00 0.000000e+00 9.045085e+00
      endloop
   endfacet
   facet normal 5.406408e-01 -0.000000e+00 8.412535e-01
      outer loop
         vertex 7.938926e+00 0.000000e+00 9.045085e+00
         vertex 7.938926e+00 1.000000e+01 9.045085e+00
         vertex 7.458664e+00 1.000000e+01 9.353730e+00
      endloop
   endfacet
   facet normal 5.406408e-01 0.000000e+00 8.412535e-01
      outer loop
         vertex 7.938926e+00 0.000000e+00 9.045085e+00
         vertex 7.458664e+00 1.000000e+01 9.353730e+00
         vertex 7.458664e+00 0.000000e+00 9.353730e+00
      endloop
   endfacet
   facet normal 4.412211e-01 -0.000000e+00 8.973984e-01
      outer loop
         vertex 7.458664e+00 0.000000e+00 9.353730e+00
         vertex 7.458664e+00 1.000000e+01 9.353730e+00
         vertex 6.946350e+00 1.000000e+01 9.605618e+00
      endloop
   endfacet
   facet normal 4.412211e-01 0.000000e+00 8.973984e-01
      outer loop
         vertex 7.458664e+00 0.000000e+00 9.353730e+00
         vertex 6.946350e+00 1.000000e+01 9.605618e+00
         vertex 6.946350e+00 0.000000e+00 9.605618e+00
      endloop
   endfacet
   facet normal 3.360490e-01 -0.000000e+00 9.418445e-01
      outer loop
         vertex 6.946350e+00 0.000000e+00 9.605618e+00
         vertex 6.946350e+00 1.000000e+01 9.605618e+00
         vertex 6.408663e+00 1.000000e+01 9.797465e+00
      endloop
   endfacet
   facet normal 3.360490e-01 0.000000e+00 9.418445e-01
      outer loop
         vertex 6.946350e+00 0.000000e+00 9.605618e+00
         vertex 6.408663e+00 1.000000e+01 9.797465e+00
         vertex 6.408663e+00 0.000000e+00 9.797465e+00
      endloop
   endfacet
   facet normal 2.264969e-01 -0.000000e+00 9.740119e-01
      outer loop
         vertex 6.408663e+00 0.000000e+00 9.797465e+00
         vertex 6.408663e+00 1.000000e+01 9.797465e+00
         vertex 5.852611e+00 1.000000e+01 9.926769e+00
      endloop
   endfacet
   facet normal 2.264969e-01 0.000000e+00 9.740119e-01
      outer loop
         vertex 6.408663e+00 0.000000e+00 9.797465e+00
         vertex 5.852611e+00 1.000000e+01 9.926769e+00
         vertex 5.852611e+00 0.000000e+00 9.926769e+00
      endloop
   endfacet
   facet normal 1.139919e-01 -0.000000e+00 9.934817e-01
      outer loop
         vertex 5.852611e+00 0.000000e+00 9.926769e+00
         vertex 5.852611e+00 1.000000e+01 9.926769e+00
         vertex 5.285444e+00 1.000000e+01 9.991846e+00
      endloop
   endfacet
   facet normal 1.139919e-01 0.000000e+00 9.934817e-01
      outer loop
         vertex 5.852611e+00 0.000000e+00 9.926769e+00
         vertex 5.285444e+00 1.000000e+01 9.991846e+00
         vertex 5.285444e+00 0.000000e+00 9.991846e+00
      endloop
   endfacet
   facet normal 2.855505e-02 -0.000000e+00 9.995922e-01
      outer loop
         vertex 5.285444e+00 0.000000e+00 9.991846e+00
         vertex 5.285444e+00 1.000000e+01 9.991846e+00
         vertex 5.000000e+00 0.000000e+00 1.000000e+01
      endloop
   endfacet
   facet normal 0.000000e+00 1.000000e+00 0.000000e+00
      outer loop
         vertex 5.000000e+00 1.000000e+01 1.000000e+01
         vertex 5.285444e+00 1.000000e+01 9.991846e+00
         vertex 5.000000e+00 1.000000e+01 5.000000e+00
      endloop
   endfacet
   facet normal 0.000000e+00 1.000000e+00 0.000000e+00
      outer loop
         vertex 5.000000e+00 1.000000e+01 1.000000e+01
         vertex 5.000000e+00 1.000000e+01 5.000000e+00
         vertex 4.714556e+00 1.000000e+01 9.991846e+00
      endloop
   endfacet
   facet normal -0.000000e+00 1.000000e+00 0.000000e+00
      outer loop
         vertex 3.053649e+00 1.000000e+01 9.605618e+00
         vertex 3.591337e+00 1.000000e+01 9.797465e+00
         vertex 5.000000e+00 1.000000e+01 5.000000e+00
      endloop
   endfacet
   facet normal 0.000000e+00 1.000000e+00 0.000000e+00
      outer loop
         vertex 5.000000e+00 1.000000e+01 5.000000e+00
         vertex 3.591337e+00 1.000000e+01 9.797465e+00
         vertex 4.147389e+00 1.000000e+01 9.926769e+00
      endloop
   endfacet
   facet normal 0.000000e+00 1.000000e+00 0.000000e+00
      outer loop
         vertex 5.000000e+00 1.000000e+01 5.000000e+00
         vertex 4.147389e+00 1.000000e+01 9.926769e+00
         vertex 4.714556e+00 1.000000e+01 9.991846e+00
      endloop
   endfacet
   facet normal -0.000000e+00 1.000000e+00 0.000000e+00
      outer loop
         vertex 1.619125e+00 1.000000e+01 8.683705e+00
         vertex 2.061074e+00 1.000000e+01 9.045085e+00
         vertex 5.000000e+00 1.000000e+01 5.000000e+00
      endloop
   endfacet
   facet normal 0.000000e+00 1.000000e+00 0.000000e+00
      outer loop
         vertex 5.000000e+00 1.000000e+01 5.000000e+00
         vertex 2.061074e+00 1.000000e+01 9.045085e+00
         vertex 2.541335e+00 1.000000e+01 9.353730e+00
      endloop
   endfacet
   facet normal 0.000000e+00 1.000000e+00 0.000000e+00
      outer loop
         vertex 5.000000e+00 1.000000e+01 5.000000e+00
         vertex 2.541335e+00 1.000000e+01 9.353730e+00
         vertex 3.053649e+00 1.000000e+01 9.605618e+00
      endloop
   endfacet
   facet normal -0.000000e+00 1.000000e+00 0.000000e+00
      outer loop
         vertex 5.778354e-01 1.000000e+01 7.333336e+00
         vertex 8.726404e-01 1.000000e+01 7.822216e+00
         vertex 5.000000e+00 1.000000e+01 5.000000e+00
      endloop
   endfacet
   facet normal 0.000000e+00 1.000000e+00 0.000000e+00
      outer loop
         vertex 5.000000e+00 1.000000e+01 5.000000e+00
         vertex 8.726404e-01 1.000000e+01 7.822216e+00
         vertex 1.221252e+00 1.000000e+01 8.274304e+00
      endloop
   endfacet
   facet normal 0.000000e+00 1.000000e+00 0.000000e+00
      outer loop
         vertex 5.000000e+00 1.000000e+01 5.000000e+00
         vertex 1.221252e+00 1.000000e+01 8.274304e+00
         vertex 1.619125e+00 1.000000e+01 8.683705e+00
      endloop
   endfacet
   facet normal -0.000000e+00 1.000000e+00 0.000000e+00
      outer loop
         vertex 5.089259e-02 1.000000e+01 5.711574e+00
         vertex 1.642657e-01 1.000000e+01 6.271092e+00
         vertex 5.000000e+00 1.000000e+01 5.000000e+00
      endloop
   endfacet
   facet normal 0.000000e+00 1.000000e+00 0.000000e+00
      outer loop
         vertex 5.000000e+00 1.000000e+01 5.000000e+00
         vertex 1.642657e-01 1.000000e+01 6.271092e+00
         vertex 3.406797e-01 1.000000e+01 6.814038e+00
      endloop
   endfacet
   facet normal 0.000000e+00 1.000000e+00 0.000000e+00
      outer loop
         vertex 5.000000e+00 1.000000e+01 5.000000e+00
         vertex 3.406797e-01 1.000000e+01 6.814038e+00
         vertex 5.778354e-01 1.000000e+01 7.333336e+00
      endloop
   endfacet
   facet normal 0.000000e+00 1.000000e+00 -0.000000e+00
      outer loop
         vertex 9.958725e-02 1.000000e+01 4.007048e+00
         vertex 1.834100e-02 1.000000e+01 4.572125e+00
         vertex 5.000000e+00 1.000000e+01 5.000000e+00
      endloop
   endfacet
   facet normal 0.000000e+00 1.000000e+00 0.000000e+00
      outer loop
         vertex 5.000000e+00 1.000000e+01 5.000000e+00
         vertex 1.834100e-02 1.000000e+01 4.572125e+00
         vertex 2.039131e-03 1.000000e+01 5.142780e+00
      endloop
   endfacet
   facet normal 0.000000e+00 1.000000e+00 0.000000e+00
      outer loop
         vertex 5.000000e+00 1.000000e+01 5.000000e+00
         vertex 2.039131e-03 1.000000e+01 5.142780e+00
         vertex 5.089259e-02 1.000000e+01 5.711574e+00
      endloop
   endfacet
   facet normal 0.000000e+00 1.000000e+00 -0.000000e+00
      outer loop
         vertex 7.182546e-01 1.000000e+01 2.418013e+00
         vertex 4.518400e-01 1.000000e+01 2.922925e+00
         vertex 5.000000e+00 1.000000e+01 5.000000e+00
      endloop
   endfacet
   facet normal 0.000000e+00 1.000000e+00 0.000000e+00
      outer loop
         vertex 5.000000e+00 1.000000e+01 5.000000e+00
         vertex 4.518400e-01 1.000000e+01 2.922925e+00
         vertex 2.447171e-01 1.000000e+01 3.454915e+00
      endloop
   endfacet
   facet normal 0.000000e+00 1.000000e+00 0.000000e+00
      outer loop
         vertex 5.000000e+00 1.000000e+01 5.000000e+00
         vertex 2.447171e-01 1.000000e+01 3.454915e+00
         vertex 9.958725e-02 1.000000e+01 4.007048e+00
      endloop
   endfacet
   facet normal 0.000000e+00 1.000000e+00 -0.000000e+00
      outer loop
         vertex 1.834938e+00 1.000000e+01 1.129292e+00
         vertex 1.414341e+00 1.000000e+01 1.515312e+00
         vertex 5.000000e+00 1.000000e+01 5.000000e+00
      endloop
   endfacet
   facet normal 0.000000e+00 1.000000e+00 0.000000e+00
      outer loop
         vertex 5.000000e+00 1.000000e+01 5.000000e+00
         vertex 1.414341e+00 1.000000e+01 1.515312e+00
         vertex 1.040488e+00 1.000000e+01 1.946761e+00
      endloop
   endfacet
   facet normal 0.000000e+00 1.000000e+00 0.000000e+00
      outer loop
         vertex 5.000000e+00 1.000000e+01 5.000000e+00
         vertex 1.040488e+00 1.000000e+01 1.946761e+00
         vertex 7.182546e-01 1.000000e+01 2.418013e+00
      endloop
   endfacet
   facet normal 0.000000e+00 1.000000e+00 -0.000000e+00
      outer loop
         vertex 3.319753e+00 1.000000e+01 2.907780e-01
         vertex 2.793894e+00 1.000000e+01 5.130079e-01
         vertex 5.000000e+00 1.000000e+01 5.000000e+00
      endloop
   endfacet
   facet normal 0.000000e+00 1.000000e+00 0.000000e+00
      outer loop
         vertex 5.000000e+00 1.000000e+01 5.000000e+00
         vertex 2.793894e+00 1.000000e+01 5.130079e-01
         vertex 2.296796e+00 1.000000e+01 7.937322e-01
      endloop
   endfacet
   facet normal 0.000000e+00 1.000000e+00 0.000000e+00
      outer loop
         vertex 5.000000e+00 1.000000e+01 5.000000e+00
         vertex 2.296796e+00 1.000000e+01 7.937322e-01
         vertex 1.834938e+00 1.000000e+01 1.129292e+00
      endloop
   endfacet
   facet normal 0.000000e+00 1.000000e+00 -0.000000e+00
      outer loop
         vertex 5.000000e+00 1.000000e+01 0.000000e+00
         vertex 4.430043e+00 1.000000e+01 3.259117e-02
         vertex 5.000000e+00 1.000000e+01 5.000000e+00
      endloop
   endfacet
   facet normal 0.000000e+00 1.000000e+00 0.000000e+00
      outer loop
         vertex 5.000000e+00 1.000000e+01 5.000000e+00
         vertex 4.430043e+00 1.000000e+01 3.259117e-02
         vertex 3.867516e+00 1.000000e+01 1.299405e-01
      endloop
   endfacet
   facet normal 0.000000e+00 1.000000e+00 0.000000e+00
      outer loop
         vertex 5.000000e+00 1.000000e+01 5.000000e+00
         vertex 3.867516e+00 1.000000e+01 1.299405e-01
         vertex 3.319753e+00 1.000000e+01 2.907780e-01
      endloop
   endfacet
   facet normal 0.000000e+00 1.000000e+00 0.000000e+00
      outer loop
         vertex 6.680247e+00 1.000000e+01 2.907780e-01
         vertex 6.132484e+00 1.000000e+01 1.299405e-01
         vertex 5.000000e+00 1.000000e+01 5.000000e+00
      endloop
   endfacet
   facet normal 0.000000e+00 1.000000e+00 0.000000e+00
      outer loop
         vertex 5.000000e+00 1.000000e+01 5.000000e+00
         vertex 6.132484e+00 1.000000e+01 1.299405e-01
         vertex 5.569957e+00 1.000000e+01 3.259117e-02
      endloop
   endfacet
   facet normal 0.000000e+00 1.000000e+00 0.000000e+00
      outer loop
         vertex 5.000000e+00 1.000000e+01 5.000000e+00
         vertex 5.569957e+00 1.000000e+01 3.259117e-02
         vertex 5.000000e+00 1.000000e+01 0.000000e+00
      endloop
   endfacet
   facet normal 0.000000e+00 1.000000e+00 0.000000e+00
      outer loop
         vertex 8.165062e+00 1.000000e+01 1.129292e+00
         vertex 7.703204e+00 1.000000e+01 7.937322e-01
         vertex 5.000000e+00 1.000000e+01 5.000000e+00
      endloop
   endfacet
   facet normal 0.000000e+00 1.000000e+00 0.000000e+00
      outer loop
         vertex 5.000000e+00 1.000000e+01 5.000000e+00
         vertex 7.703204e+00 1.000000e+01 7.937322e-01
         vertex 7.206105e+00 1.000000e+01 5.130079e-01
      endloop
   endfacet
   facet normal 0.000000e+00 1.000000e+00 0.000000e+00
      outer loop
         vertex 5.000000e+00 1.000000e+01 5.000000e+00
         vertex 7.206105e+00 1.000000e+01 5.130079e-01
         vertex 6.680247e+00 1.000000e+01 2.907780e-01
      endloop
   endfacet
   facet normal 0.000000e+00 1.000000e+00 0.000000e+00
      outer loop
         vertex 9.281745e+00 1.000000e+01 2.418013e+00
         vertex 8.959511e+00 1.000000e+01 1.946761e+00
         vertex 5.000000e+00 1.000000e+01 5.000000e+00
      endloop
   endfacet
   facet normal 0.000000e+00 1.000000e+00 0.000000e+00
      outer loop
         vertex 5.000000e+00 1.000000e+01 5.000000e+00
         vertex 8.959511e+00 1.000000e+01 1.946761e+00
         vertex 8.585659e+00 1.000000e+01 1.515312e+00
      endloop
   endfacet
   facet normal 0.000000e+00 1.000000e+00 0.000000e+00
      outer loop
         vertex 5.000000e+00 1.000000e+01 5.000000e+00
         vertex 8.585659e+00 1.000000e+01 1.515312e+00
         vertex 8.165062e+00 1.000000e+01 1.129292e+00
      endloop
   endfacet
   facet normal 0.000000e+00 1.000000e+00 0.000000e+00
      outer loop
         vertex 9.900413e+00 1.000000e+01 4.007048e+00
         vertex 9.755283e+00 1.000000e+01 3.454915e+00
         vertex 5.000000e+00 1.000000e+01 5.000000e+00
      endloop
   endfacet
   facet normal 0.000000e+00 1.000000e+00 0.000000e+00
      outer loop
         vertex 5.000000e+00 1.000000e+01 5.000000e+00
         vertex 9.755283e+00 1.000000e+01 3.454915e+00
         vertex 9.548160e+00 1.000000e+01 2.922925e+00
      endloop
   endfacet
   facet normal 0.000000e+00 1.000000e+00 0.000000e+00
      outer loop
         vertex 5.000000e+00 1.000000e+01 5.000000e+00
         vertex 9.548160e+00 1.000000e+01 2.922925e+00
         vertex 9.281745e+00 1.000000e+01 2.418013e+00
      endloop
   endfacet
   facet normal 0.000000e+00 1.000000e+00 0.000000e+00
      outer loop
         vertex 9.949107e+00 1.000000e+01 5.711574e+00
         vertex 9.997961e+00 1.000000e+01 5.142780e+00
         vertex 5.000000e+00 1.000000e+01 5.000000e+00
      endloop
   endfacet
   facet normal -0.000000e+00 1.000000e+00 0.000000e+00
      outer loop
         vertex 5.000000e+00 1.000000e+01 5.000000e+00
         vertex 9.997961e+00 1.000000e+01 5.142780e+00
         vertex 9.981659e+00 1.000000e+01 4.572125e+00
      endloop
   endfacet
   facet normal 0.000000e+00 1.000000e+00 0.000000e+00
      outer loop
         vertex 5.000000e+00 1.000000e+01 5.000000e+00
         vertex 9.981659e+00 1.000000e+01 4.572125e+00
         vertex 9.900413e+00 1.000000e+01 4.007048e+00
      endloop
   endfacet
   facet normal 0.000000e+00 1.000000e+00 0.000000e+00
      outer loop
         vertex 9.422164e+00 1.000000e+01 7.333336e+00
         vertex 9.659320e+00 1.000000e+01 6.814038e+00
         vertex 5.000000e+00 1.000000e+01 5.000000e+00
      endloop
   endfacet
   facet normal 0.000000e+00 1.000000e+00 0.000000e+00
      outer loop
         vertex 5.000000e+00 1.000000e+01 5.000000e+00
         vertex 9.659320e+00 1.000000e+01 6.814038e+00
         vertex 9.835734e+00 1.000000e+01 6.271092e+00
      endloop
   endfacet
   facet normal 0.000000e+00 1.000000e+00 0.000000e+00
      outer loop
         vertex 5.000000e+00 1.000000e+01 5.000000e+00
         vertex 9.835734e+00 1.000000e+01 6.271092e+00
         vertex 9.949107e+00 1.000000e+01 5.711574e+00
      endloop
   endfacet
   facet normal 0.000000e+00 1.000000e+00 0.000000e+00
      outer loop
         vertex 8.380874e+00 1.000000e+01 8.683705e+00
         vertex 8.778748e+00 1.000000e+01 8.274304e+00
         vertex 5.000000e+00 1.000000e+01 5.000000e+00
      endloop
   endfacet
   facet normal 0.000000e+00 1.000000e+00 0.000000e+00
      outer loop
         vertex 5.000000e+00 1.000000e+01 5.000000e+00
         vertex 8.778748e+00 1.000000e+01 8.274304e+00
         vertex 9.127359e+00 1.000000e+01 7.822216e+00
      endloop
   endfacet
   facet normal 0.000000e+00 1.000000e+00 0.000000e+00
      outer loop
         vertex 5.000000e+00 1.000000e+01 5.000000e+00
         vertex 9.127359e+00 1.000000e+01 7.822216e+00
         vertex 9.422164e+00 1.000000e+01 7.333336e+00
      endloop
   endfacet
   facet normal 0.000000e+00 1.000000e+00 0.000000e+00
      outer loop
         vertex 6.946350e+00 1.000000e+01 9.605618e+00
         vertex 7.458664e+00 1.000000e+01 9.353730e+00
         vertex 5.000000e+00 1.000000e+01 5.000000e+00
      endloop
   endfacet
   facet normal 0.000000e+00 1.000000e+00 0.000000e+00
      outer loop
         vertex 5.000000e+00 1.000000e+01 5.000000e+00
         vertex 7.458664e+00 1.000000e+01 9.353730e+00
         vertex 7.938926e+00 1.000000e+01 9.045085e+00
      endloop
   endfacet
   facet normal 0.000000e+00 1.000000e+00 0.000000e+00
      outer loop
         vertex 5.000000e+00 1.000000e+01 5.000000e+00
         vertex 7.938926e+00 1.000000e+01 9.045085e+00
         vertex 8.380874e+00 1.000000e+01 8.683705e+00
      endloop
   endfacet
   facet normal 0.000000e+00 1.000000e+00 0.000000e+00
      outer loop
         vertex 5.285444e+00 1.000000e+01 9.991846e+00
         vertex 5.852611e+00 1.000000e+01 9.926769e+00
         vertex 5.000000e+00 1.000000e+01 5.000000e+00
      endloop
   endfacet
   facet normal 0.000000e+00 1.000000e+00 0.000000e+00
      outer loop
         vertex 5.000000e+00 1.000000e+01 5.000000e+00
         vertex 5.852611e+00 1.000000e+01 9.926769e+00
         vertex 6.408663e+00 1.000000e+01 9.797465e+00
      endloop
   endfacet
   facet normal 0.000000e+00 1.000000e+00 0.000000e+00
      outer loop
         vertex 5.000000e+00 1.000000e+01 5.000000e+00
         vertex 6.408663e+00 1.000000e+01 9.797465e+00
         vertex 6.946350e+00 1.000000e+01 9.605618e+00
      endloop
   endfacet
   facet normal 0.000000e+00 -1.000000e+00 0.000000e+00
      outer loop
         vertex 5.000000e+00 0.000000e+00 1.000000e+01
         vertex 4.714556e+00 0.000000e+00 9.991846e+00
         vertex 5.000000e+00 0.000000e+00 5.000000e+00
      endloop
   endfacet
   facet normal 0.000000e+00 -1.000000e+00 -0.000000e+00
      outer loop
         vertex 5.000000e+00 0.000000e+00 1.000000e+01
         vertex 5.000000e+00 0.000000e+00 5.000000e+00
         vertex 5.285444e+00 0.000000e+00 9.991846e+00
      endloop
   endfacet
   facet normal -0.000000e+00 -1.000000e+00 0.000000e+00
      outer loop
         vertex 6.946350e+00 0.000000e+00 9.605618e+00
         vertex 6.408663e+00 0.000000e+00 9.797465e+00
         vertex 5.000000e+00 0.000000e+00 5.000000e+00
      endloop
   endfacet
   facet normal 0.000000e+00 -1.000000e+00 0.000000e+00
      outer loop
         vertex 5.000000e+00 0.000000e+00 5.000000e+00
         vertex 6.408663e+00 0.000000e+00 9.797465e+00
         vertex 5.852611e+00 0.000000e+00 9.926769e+00
      endloop
   endfacet
   facet normal 0.000000e+00 -1.000000e+00 0.000000e+00
      outer loop
         vertex 5.000000e+00 0.000000e+00 5.000000e+00
         vertex 5.852611e+00 0.000000e+00 9.926769e+00
         vertex 5.285444e+00 0.000000e+00 9.991846e+00
      endloop
   endfacet
   facet normal -0.000000e+00 -1.000000e+00 0.000000e+00
      outer loop
         vertex 8.380874e+00 0.000000e+00 8.683705e+00
         vertex 7.938926e+00 0.000000e+00 9.045085e+00
         vertex 5.000000e+00 0.000000e+00 5.000000e+00
      endloop
   endfacet
   facet normal 0.000000e+00 -1.000000e+00 0.000000e+00
      outer loop
         vertex 5.000000e+00 0.000000e+00 5.000000e+00
         vertex 7.938926e+00 0.000000e+00 9.045085e+00
         vertex 7.458664e+00 0.000000e+00 9.353730e+00
      endloop
   endfacet
   facet normal 0.000000e+00 -1.000000e+00 0.000000e+00
      outer loop
         vertex 5.000000e+00 0.000000e+00 5.000000e+00
         vertex 7.458664e+00 0.000000e+00 9.353730e+00
         vertex 6.946350e+00 0.000000e+00 9.605618e+00
      endloop
   endfacet
   facet normal -0.000000e+00 -1.000000e+00 0.000000e+00
      outer loop
         vertex 9.422164e+00 0.000000e+00 7.333336e+00
         vertex 9.127359e+00 0.000000e+00 7.822216e+00
         vertex 5.000000e+00 0.000000e+00 5.000000e+00
      endloop
   endfacet
   facet normal 0.000000e+00 -1.000000e+00 0.000000e+00
      outer loop
         vertex 5.000000e+00 0.000000e+00 5.000000e+00
         vertex 9.127359e+00 0.000000e+00 7.822216e+00
         vertex 8.778748e+00 0.000000e+00 8.274304e+00
      endloop
   endfacet
   facet normal 0.000000e+00 -1.000000e+00 0.000000e+00
      outer loop
         vertex 5.000000e+00 0.000000e+00 5.000000e+00
         vertex 8.778748e+00 0.000000e+00 8.274304e+00
         vertex 8.380874e+00 0.000000e+00 8.683705e+00
      endloop
   endfacet
   facet normal -0.000000e+00 -1.000000e+00 0.000000e+00
      outer loop
         vertex 9.949107e+00 0.000000e+00 5.711574e+00
         vertex 9.835734e+00 0.000000e+00 6.271092e+00
         vertex 5.000000e+00 0.000000e+00 5.000000e+00
      endloop
   endfacet
   facet normal 0.000000e+00 -1.000000e+00 0.000000e+00
      outer loop
         vertex 5.000000e+00 0.000000e+00 5.000000e+00
         vertex 9.835734e+00 0.000000e+00 6.271092e+00
         vertex 9.659320e+00 0.000000e+00 6.814038e+00
      endloop
   endfacet
   facet normal 0.000000e+00 -1.000000e+00 0.000000e+00
      outer loop
         vertex 5.000000e+00 0.000000e+00 5.000000e+00
         vertex 9.659320e+00 0.000000e+00 6.814038e+00
         vertex 9.422164e+00 0.000000e+00 7.333336e+00
      endloop
   endfacet
   facet normal 0.000000e+00 -1.000000e+00 0.000000e+00
      outer loop
         vertex 9.900413e+00 0.000000e+00 4.007048e+00
         vertex 9.981659e+00 0.000000e+00 4.572125e+00
         vertex 5.000000e+00 0.000000e+00 5.000000e+00
      endloop
   endfacet
   facet normal 0.000000e+00 -1.000000e+00 0.000000e+00
      outer loop
         vertex 5.000000e+00 0.000000e+00 5.000000e+00
         vertex 9.981659e+00 0.000000e+00 4.572125e+00
         vertex 9.997961e+00 0.000000e+00 5.142780e+00
      endloop
   endfacet
   facet normal 0.000000e+00 -1.000000e+00 0.000000e+00
      outer loop
         vertex 5.000000e+00 0.000000e+00 5.000000e+00
         vertex 9.997961e+00 0.000000e+00 5.142780e+00
         vertex 9.949107e+00 0.000000e+00 5.711574e+00
      endloop
   endfacet
   facet normal 0.000000e+00 -1.000000e+00 0.000000e+00
      outer loop
         vertex 9.281745e+00 0.000000e+00 2.418013e+00
         vertex 9.548160e+00 0.000000e+00 2.922925e+00
         vertex 5.000000e+00 0.000000e+00 5.000000e+00
      endloop
   endfacet
   facet normal 0.000000e+00 -1.000000e+00 0.000000e+00
      outer loop
         vertex 5.000000e+00 0.000000e+00 5.000000e+00
         vertex 9.548160e+00 0.000000e+00 2.922925e+00
         vertex 9.755283e+00 0.000000e+00 3.454915e+00
      endloop
   endfacet
   facet normal 0.000000e+00 -1.000000e+00 0.000000e+00
      outer loop
         vertex 5.000000e+00 0.000000e+00 5.000000e+00
         vertex 9.755283e+00 0.000000e+00 3.454915e+00
         vertex 9.900413e+00 0.000000e+00 4.007048e+00
      endloop
   endfacet
   facet normal 0.000000e+00 -1.000000e+00 0.000000e+00
      outer loop
         vertex 8.165062e+00 0.000000e+00 1.129292e+00
         vertex 8.585659e+00 0.000000e+00 1.515312e+00
         vertex 5.000000e+00 0.000000e+00 5.000000e+00
      endloop
   endfacet
   facet normal 0.000000e+00 -1.000000e+00 0.000000e+00
      outer loop
         vertex 5.000000e+00 0.000000e+00 5.000000e+00
         vertex 8.585659e+00 0.000000e+00 1.515312e+00
         vertex 8.959511e+00 0.000000e+00 1.946761e+00
      endloop
   endfacet
   facet normal 0.000000e+00 -1.000000e+00 0.000000e+00
      outer loop
         vertex 5.000000e+00 0.000000e+00 5.000000e+00
         vertex 8.959511e+00 0.000000e+00 1.946761e+00
         vertex 9.281745e+00 0.000000e+00 2.418013e+00
      endloop
   endfacet
   facet normal 0.000000e+00 -1.000000e+00 0.000000e+00
      outer loop
         vertex 6.680247e+00 0.000000e+00 2.907780e-01
         vertex 7.206105e+00 0.000000e+00 5.130079e-01
         vertex 5.000000e+00 0.000000e+00 5.000000e+00
      endloop
   endfacet
   facet normal 0.000000e+00 -1.000000e+00 0.000000e+00
      outer loop
         vertex 5.000000e+00 0.000000e+00 5.000000e+00
         vertex 7.206105e+00 0.000000e+00 5.130079e-01
         vertex 7.703204e+00 0.000000e+00 7.937322e-01
      endloop
   endfacet
   facet normal 0.000000e+00 -1.000000e+00 0.000000e+00
      outer loop
         vertex 5.000000e+00 0.000000e+00 5.000000e+00
         vertex 7.703204e+00 0.000000e+00 7.937322e-01
         vertex 8.165062e+00 0.000000e+00 1.129292e+00
      endloop
   endfacet
   facet normal 0.000000e+00 -1.000000e+00 0.000000e+00
      outer loop
         vertex 5.000000e+00 0.000000e+00 0.000000e+00
         vertex 5.569957e+00 0.000000e+00 3.259117e-02
         vertex 5.000000e+00 0.000000e+00 5.000000e+00
      endloop
   endfacet
   facet normal 0.000000e+00 -1.000000e+00 0.000000e+00
      outer loop
         vertex 5.000000e+00 0.000000e+00 5.000000e+00
         vertex 5.569957e+00 0.000000e+00 3.259117e-02
         vertex 6.132484e+00 0.000000e+00 1.299405e-01
      endloop
   endfacet
   facet normal 0.000000e+00 -1.000000e+00 0.000000e+00
      outer loop
         vertex 5.000000e+00 0.000000e+00 5.000000e+00
         vertex 6.132484e+00 0.000000e+00 1.299405e-01
         vertex 6.680247e+00 0.000000e+00 2.907780e-01
      endloop
   endfacet
   facet normal 0.000000e+00 -1.000000e+00 0.000000e+00
      outer loop
         vertex 3.319753e+00 0.000000e+00 2.907780e-01
         vertex 3.867516e+00 0.000000e+00 1.299405e-01
         vertex 5.000000e+00 0.000000e+00 5.000000e+00
      endloop
   endfacet
   facet normal 0.000000e+00 -1.000000e+00 0.000000e+00
      outer loop
         vertex 5.000000e+00 0.000000e+00 5.000000e+00
         vertex 3.867516e+00 0.000000e+00 1.299405e-01
         vertex 4.430043e+00 0.000000e+00 3.259117e-02
      endloop
   endfacet
   facet normal 0.000000e+00 -1.000000e+00 -0.000000e+00
      outer loop
         vertex 5.000000e+00 0.000000e+00 5.000000e+00
         vertex 4.430043e+00 0.000000e+00 3.259117e-02
         vertex 5.000000e+00 0.000000e+00 0.000000e+00
      endloop
   endfacet
   facet normal 0.000000e+00 -1.000000e+00 0.000000e+00
      outer loop
         vertex 1.834938e+00 0.000000e+00 1.129292e+00
         vertex 2.296796e+00 0.000000e+00 7.937322e-01
         vertex 5.000000e+00 0.000000e+00 5.000000e+00
      endloop
   endfacet
   facet normal 0.000000e+00 -1.000000e+00 0.000000e+00
      outer loop
         vertex 5.000000e+00 0.000000e+00 5.000000e+00
         vertex 2.296796e+00 0.000000e+00 7.937322e-01
         vertex 2.793894e+00 0.000000e+00 5.130079e-01
      endloop
   endfacet
   facet normal 0.000000e+00 -1.000000e+00 0.000000e+00
      outer loop
         vertex 5.000000e+00 0.000000e+00 5.000000e+00
         vertex 2.793894e+00 0.000000e+00 5.130079e-01
         vertex 3.319753e+00 0.000000e+00 2.907780e-01
      endloop
   endfacet
   facet normal 0.000000e+00 -1.000000e+00 0.000000e+00
      outer loop
         vertex 7.182546e-01 0.000000e+00 2.418013e+00
         vertex 1.040488e+00 0.000000e+00 1.946761e+00
         vertex 5.000000e+00 0.000000e+00 5.000000e+00
      endloop
   endfacet
   facet normal 0.000000e+00 -1.000000e+00 0.000000e+00
      outer loop
         vertex 5.000000e+00 0.000000e+00 5.000000e+00
         vertex 1.040488e+00 0.000000e+00 1.946761e+00
         vertex 1.414341e+00 0.000000e+00 1.515312e+00
      endloop
   endfacet
   facet normal 0.000000e+00 -1.000000e+00 0.000000e+00
      outer loop
         vertex 5.000000e+00 0.000000e+00 5.000000e+00
         vertex 1.414341e+00 0.000000e+00 1.515312e+00
         vertex 1.834938e+00 0.000000e+00 1.129292e+00
      endloop
   endfacet
   facet normal 0.000000e+00 -1.000000e+00 0.000000e+00
      outer loop
         vertex 9.958725e-02 0.000000e+00 4.007048e+00
         vertex 2.447171e-01 0.000000e+00 3.454915e+00
         vertex 5.000000e+00 0.000000e+00 5.000000e+00
      endloop
   endfacet
   facet normal 0.000000e+00 -1.000000e+00 0.000000e+00
      outer loop
         vertex 5.000000e+00 0.000000e+00 5.000000e+00
         vertex 2.447171e-01 0.000000e+00 3.454915e+00
         vertex 4.518400e-01 0.000000e+00 2.922925e+00
      endloop
   endfacet
   facet normal 0.000000e+00 -1.000000e+00 0.000000e+00
      outer loop
         vertex 5.000000e+00 0.000000e+00 5.000000e+00
         vertex 4.518400e-01 0.000000e+00 2.922925e+00
         vertex 7.182546e-01 0.000000e+00 2.418013e+00
      endloop
   endfacet
   facet normal 0.000000e+00 -1.000000e+00 -0.000000e+00
      outer loop
         vertex 5.089259e-02 0.000000e+00 5.711574e+00
         vertex 2.039131e-03 0.000000e+00 5.142780e+00
         vertex 5.000000e+00 0.000000e+00 5.000000e+00
      endloop
   endfacet
   facet normal -0.000000e+00 -1.000000e+00 0.000000e+00
      outer loop
         vertex 5.000000e+00 0.000000e+00 5.000000e+00
         vertex 2.039131e-03 0.000000e+00 5.142780e+00
         vertex 1.834100e-02 0.000000e+00 4.572125e+00
      endloop
   endfacet
   facet normal 0.000000e+00 -1.000000e+00 0.000000e+00
      outer loop
         vertex 5.000000e+00 0.000000e+00 5.000000e+00
         vertex 1.834100e-02 0.000000e+00 4.572125e+00
         vertex 9.958725e-02 0.000000e+00 4.007048e+00
      endloop
   endfacet
   facet normal 0.000000e+00 -1.000000e+00 -0.000000e+00
      outer loop
         vertex 5.778354e-01 0.000000e+00 7.333336e+00
         vertex 3.406797e-01 0.000000e+00 6.814038e+00
         vertex 5.000000e+00 0.000000e+00 5.000000e+00
      endloop
   endfacet
   facet normal 0.000000e+00 -1.000000e+00 0.000000e+00
      outer loop
         vertex 5.000000e+00 0.000000e+00 5.000000e+00
         vertex 3.406797e-01 0.000000e+00 6.814038e+00
         vertex 1.642657e-01 0.000000e+00 6.271092e+00
      endloop
   endfacet
   facet normal 0.000000e+00 -1.000000e+00 0.000000e+00
      outer loop
         vertex 5.000000e+00 0.000000e+00 5.000000e+00
         vertex 1.642657e-01 0.000000e+00 6.271092e+00
         vertex 5.089259e-02 0.000000e+00 5.711574e+00
      endloop
   endfacet
   facet normal 0.000000e+00 -1.000000e+00 -0.000000e+00
      outer loop
         vertex 1.619125e+00 0.000000e+00 8.683705e+00
         vertex 1.221252e+00 0.000000e+00 8.274304e+00
         vertex 5.000000e+00 0.000000e+00 5.000000e+00
      endloop
   endfacet
   facet normal 0.000000e+00 -1.000000e+00 0.000000e+00
      outer loop
         vertex 5.000000e+00 0.000000e+00 5.000000e+00
         vertex 1.221252e+00 0.000000e+00 8.274304e+00
         vertex 8.726404e-01 0.000000e+00 7.822216e+00
      endloop
   endfacet
   facet normal 0.000000e+00 -1.000000e+00 0.000000e+00
      outer loop
         vertex 5.000000e+00 0.000000e+00 5.000000e+00
         vertex 8.726404e-01 0.000000e+00 7.822216e+00
         vertex 5.778354e-01 0.000000e+00 7.333336e+00
      endloop
   endfacet
   facet normal 0.000000e+00 -1.000000e+00 -0.000000e+00
      outer loop
         vertex 3.053649e+00 0.000000e+00 9.605618e+00
         vertex 2.541335e+00 0.000000e+00 9.353730e+00
         vertex 5.000000e+00 0.000000e+00 5.000000e+00
      endloop
   endfacet
   facet normal 0.000000e+00 -1.000000e+00 0.000000e+00
      outer loop
         vertex 5.000000e+00 0.000000e+00 5.000000e+00
         vertex 2.541335e+00 0.000000e+00 9.353730e+00
         vertex 2.061074e+00 0.000000e+00 9.045085e+00
      endloop
   endfacet
   facet normal 0.000000e+00 -1.000000e+00 0.000000e+00
      outer loop
         vertex 5.000000e+00 0.000000e+00 5.000000e+00
         vertex 2.061074e+00 0.000000e+00 9.045085e+00
         vertex 1.619125e+00 0.000000e+00 8.683705e+00
      endloop
   endfacet
   facet normal 0.000000e+00 -1.000000e+00 -0.000000e+00
      outer loop
         vertex 4.714556e+00 0.000000e+00 9.991846e+00
         vertex 4.147389e+00 0.000000e+00 9.926769e+00
         vertex 5.000000e+00 0.000000e+00 5.000000e+00
      endloop
   endfacet
   facet normal 0.000000e+00 -1.000000e+00 0.000000e+00
      outer loop
         vertex 5.000000e+00 0.000000e+00 5.000000e+00
         vertex 4.147389e+00 0.000000e+00 9.926769e+00
         vertex 3.591337e+00 0.000000e+00 9.797465e+00
      endloop
   endfacet
   facet normal 0.000000e+00 -1.000000e+00 0.000000e+00
      outer loop
         vertex 5.000000e+00 0.000000e+00 5.000000e+00
         vertex 3.591337e+00 0.000000e+00 9.797465e+00
         vertex 3.053649e+00 0.000000e+00 9.605618e+00
      endloop
   endfacet
endsolid
